<svg width="26" height="25" viewBox="0 0 26 25" fill="none" xmlns="http://www.w3.org/2000/svg">
<g filter="url(#filter0_d_20005153_1627)">
<path d="M19.6667 3.33325H6.33341C5.41425 3.33325 4.66675 4.08075 4.66675 4.99992V14.9999C4.66675 15.9191 5.41425 16.6666 6.33341 16.6666H19.6667C20.5859 16.6666 21.3334 15.9191 21.3334 14.9999V4.99992C21.3334 4.08075 20.5859 3.33325 19.6667 3.33325ZM19.6667 4.99992V5.42575L13.0001 10.6116L6.33341 5.42659V4.99992H19.6667ZM6.33341 14.9999V7.53658L12.4884 12.3241C12.6384 12.4416 12.8192 12.4999 13.0001 12.4999C13.1809 12.4999 13.3617 12.4416 13.5117 12.3241L19.6667 7.53658L19.6684 14.9999H6.33341Z" fill="#B4B7C9"/>
</g>
<defs>
<filter id="filter0_d_20005153_1627" x="-1" y="0" width="28" height="28" filterUnits="userSpaceOnUse" color-interpolation-filters="sRGB">
<feFlood flood-opacity="0" result="BackgroundImageFix"/>
<feColorMatrix in="SourceAlpha" type="matrix" values="0 0 0 0 0 0 0 0 0 0 0 0 0 0 0 0 0 0 127 0" result="hardAlpha"/>
<feOffset dy="4"/>
<feGaussianBlur stdDeviation="2"/>
<feComposite in2="hardAlpha" operator="out"/>
<feColorMatrix type="matrix" values="0 0 0 0 0 0 0 0 0 0 0 0 0 0 0 0 0 0 0.25 0"/>
<feBlend mode="normal" in2="BackgroundImageFix" result="effect1_dropShadow_20005153_1627"/>
<feBlend mode="normal" in="SourceGraphic" in2="effect1_dropShadow_20005153_1627" result="shape"/>
</filter>
</defs>
</svg>
