<svg width="147" height="60" viewBox="0 0 147 60" fill="none" xmlns="http://www.w3.org/2000/svg">
<path d="M69.6802 37.6489C70.4306 37.6489 71.1571 37.5534 71.8598 37.3624C72.5692 37.1714 73.2036 36.8848 73.763 36.5028C74.3224 36.114 74.7658 35.6262 75.0932 35.0396C75.4275 34.4461 75.5946 33.7537 75.5946 32.9624C75.5946 32.2188 75.4548 31.6048 75.1751 31.1205C74.9022 30.6362 74.5509 30.2473 74.1211 29.954C73.6982 29.6538 73.2548 29.4219 72.7909 29.2582C72.327 29.0876 71.9041 28.9512 71.5221 28.8489L68.9639 28.1531C68.6501 28.0712 68.3432 27.9689 68.043 27.8461C67.7429 27.7233 67.4939 27.563 67.296 27.3652C67.0982 27.1605 66.9993 26.8979 66.9993 26.5773C66.9993 26.2293 67.1187 25.9292 67.3574 25.6768C67.603 25.4244 67.9168 25.2334 68.2988 25.1038C68.6877 24.9673 69.1004 24.9059 69.537 24.9196C70.2055 24.94 70.8194 25.1379 71.3788 25.5131C71.9382 25.8883 72.2998 26.434 72.4635 27.1503L75.4718 26.6387C75.1171 25.2538 74.4281 24.1931 73.4049 23.4563C72.3816 22.7196 71.106 22.341 69.5779 22.3205C68.5683 22.3137 67.6474 22.4706 66.8151 22.7912C65.9829 23.1118 65.3177 23.5996 64.8198 24.2545C64.3218 24.9093 64.0728 25.7314 64.0728 26.7205C64.0728 27.4231 64.1887 28.0064 64.4207 28.4703C64.6594 28.9273 64.9562 29.2957 65.3109 29.5754C65.6656 29.8551 66.0306 30.07 66.4058 30.22C66.7878 30.3701 67.1221 30.4861 67.4086 30.568L71.2356 31.6935C71.8086 31.8641 72.1906 32.079 72.3816 32.3382C72.5726 32.5906 72.6681 32.8669 72.6681 33.167C72.6681 33.5763 72.5283 33.9208 72.2486 34.2005C71.9757 34.4802 71.6244 34.6917 71.1946 34.8349C70.7649 34.9782 70.3215 35.0498 69.8644 35.0498C69.0458 35.0498 68.3159 34.8213 67.6746 34.3642C67.0334 33.9072 66.6105 33.2557 66.4058 32.4098L63.4998 32.8396C63.6498 33.8355 64.0046 34.6951 64.5639 35.4182C65.1301 36.1345 65.8498 36.687 66.723 37.0759C67.603 37.4579 68.5887 37.6489 69.6802 37.6489Z" fill="#0B0F19"/>
<path d="M78.0484 24.7559H80.8316V22.3H78.0484V24.7559ZM78.0484 37.3419H80.8316V26.2907H78.0484V37.3419Z" fill="#0B0F19"/>
<path d="M84.104 37.3419H86.8872V22.3H84.104V37.3419Z" fill="#0B0F19"/>
<path d="M90.1596 24.7559H92.9428V22.3H90.1596V24.7559ZM90.1596 37.3419H92.9428V26.2907H90.1596V37.3419Z" fill="#0B0F19"/>
<path d="M100.881 37.6489C102.164 37.6489 103.241 37.3317 104.115 36.6972C104.988 36.0628 105.581 35.159 105.895 33.9856L103.05 33.3921C102.887 33.9242 102.641 34.3335 102.314 34.62C101.986 34.9066 101.509 35.0498 100.881 35.0498C100.042 35.0498 99.4077 34.7531 98.9779 34.1596C98.555 33.5593 98.3435 32.7782 98.3435 31.8163C98.3435 30.8954 98.5448 30.128 98.9472 29.514C99.3565 28.8932 100.001 28.5828 100.881 28.5828C101.393 28.5828 101.85 28.7431 102.252 29.0638C102.662 29.3844 102.948 29.8312 103.112 30.4042L105.895 29.6675C105.65 28.5283 105.083 27.6312 104.197 26.9763C103.317 26.3146 102.225 25.9838 100.922 25.9838C99.7965 25.9838 98.821 26.2362 97.9956 26.741C97.1702 27.2458 96.5289 27.9382 96.0719 28.8182C95.6217 29.6982 95.3965 30.6976 95.3965 31.8163C95.3965 32.9214 95.6148 33.914 96.0514 34.794C96.488 35.674 97.1156 36.3698 97.9342 36.8814C98.7528 37.3931 99.7351 37.6489 100.881 37.6489Z" fill="#0B0F19"/>
<path d="M112.615 37.6489C113.72 37.6489 114.692 37.4033 115.531 36.9121C116.377 36.4141 117.036 35.7286 117.506 34.8554C117.984 33.9754 118.222 32.9624 118.222 31.8163C118.222 30.6771 117.987 29.6709 117.516 28.7977C117.046 27.9177 116.387 27.2287 115.542 26.7307C114.702 26.2328 113.727 25.9838 112.615 25.9838C111.524 25.9838 110.558 26.2293 109.719 26.7205C108.88 27.2117 108.222 27.8973 107.744 28.7773C107.267 29.6504 107.028 30.6635 107.028 31.8163C107.028 32.9555 107.26 33.9652 107.724 34.8452C108.195 35.7183 108.849 36.4039 109.689 36.9019C110.528 37.3999 111.503 37.6489 112.615 37.6489ZM112.615 35.0498C111.749 35.0498 111.09 34.7599 110.64 34.18C110.197 33.5934 109.975 32.8055 109.975 31.8163C109.975 30.8545 110.187 30.0768 110.609 29.4833C111.039 28.883 111.708 28.5828 112.615 28.5828C113.495 28.5828 114.157 28.8762 114.6 29.4628C115.05 30.0495 115.276 30.834 115.276 31.8163C115.276 32.7645 115.054 33.5422 114.61 34.1493C114.174 34.7497 113.509 35.0498 112.615 35.0498Z" fill="#0B0F19"/>
<path d="M120.452 37.3419H123.276V31.7345C123.276 31.0455 123.351 30.4929 123.502 30.0768C123.658 29.6607 123.856 29.3469 124.095 29.1354C124.334 28.9171 124.59 28.7704 124.862 28.6954C125.135 28.6204 125.391 28.5828 125.63 28.5828C126.223 28.5828 126.68 28.7159 127.001 28.9819C127.328 29.248 127.564 29.5788 127.707 29.9745C127.85 30.3701 127.936 30.7658 127.963 31.1614C127.99 31.5503 128.004 31.8709 128.004 32.1233V37.3419H130.828V31.141C130.828 30.9568 130.814 30.6635 130.787 30.261C130.76 29.8585 130.681 29.4151 130.552 28.9307C130.422 28.4396 130.204 27.9689 129.897 27.5186C129.597 27.0684 129.174 26.6966 128.628 26.4033C128.082 26.11 127.376 25.9633 126.51 25.9633C125.712 25.9633 125.016 26.0963 124.422 26.3624C123.829 26.6284 123.331 26.9831 122.929 27.4266V26.2907H120.452V37.3419Z" fill="#0B0F19"/>
<path d="M19.2174 30L13.087 20.2791L31.9891 8L31.4783 18.7442L19.2174 30Z" fill="url(#paint0_linear_3_297)"/>
<path d="M31.4783 18.7442L31.9891 8L51.4022 16.6977L47.3152 34.093L21.2609 38.186L19.2174 30L31.4783 18.7442Z" fill="url(#paint1_linear_3_297)"/>
<path d="M40.163 52L21.2609 38.186L47.3152 34.093L51.913 38.6977L40.163 52Z" fill="url(#paint2_linear_3_297)"/>
<path d="M47.3152 34.093L51.913 38.6977L56 25.907L51.4022 16.6977L47.3152 34.093Z" fill="url(#paint3_linear_3_297)"/>
<path d="M21.2609 38.186L40.163 52L21.2609 49.4418L9 34.6046L21.2609 38.186Z" fill="url(#paint4_linear_3_297)"/>
<path d="M13.087 20.2791L9 34.6046L21.2609 38.186L19.2174 30L13.087 20.2791Z" fill="url(#paint5_linear_3_297)"/>
<path d="M40.1636 52L21.2615 38.186L47.3158 34.093L51.9136 38.6977L40.1636 52Z" fill="black" fill-opacity="0.17"/>
<path d="M47.3147 34.0931L51.9125 38.6977L55.9995 25.9071L51.4017 16.6978L47.3147 34.0931Z" fill="black" fill-opacity="0.1"/>
<path d="M21.2609 38.1861L40.163 52.0001L21.2609 49.4419L9 34.6047L21.2609 38.1861Z" fill="black" fill-opacity="0.23"/>
<path d="M13.087 20.2791L9 34.6046L21.2609 38.186L19.2174 30L13.087 20.2791Z" fill="#C0C0C0" fill-opacity="0.05"/>
<path d="M19.2174 30L13.087 20.2791L31.9891 8L31.4783 18.7442L19.2174 30Z" fill="white" fill-opacity="0.15"/>
<path fill-rule="evenodd" clip-rule="evenodd" d="M19.2174 30L31.4783 18.7442L31.9891 8L13.087 20.2791L19.2174 30ZM19.2807 29.5255L31.1781 18.6033L31.6545 8.58326L13.5078 20.3716L19.2807 29.5255Z" fill="white" fill-opacity="0.15"/>
<path fill-rule="evenodd" clip-rule="evenodd" d="M31.7784 18.885L19.559 30.1028L21.4903 37.8393L47.0641 33.8217L51.0458 16.8743L32.2739 8.4639L31.7784 18.885ZM31.4783 18.7442L19.2174 30L21.2609 38.186L47.3152 34.093L51.4022 16.6977L31.9891 8L31.4783 18.7442Z" fill="white" fill-opacity="0.15"/>
<path fill-rule="evenodd" clip-rule="evenodd" d="M40.1183 51.5873L51.4924 38.7105L47.2087 34.4205L22.0388 38.3745L40.1183 51.5873ZM40.163 52L51.913 38.6977L47.3152 34.093L21.2609 38.186L40.163 52Z" fill="white" fill-opacity="0.15"/>
<path fill-rule="evenodd" clip-rule="evenodd" d="M51.913 38.6977L56 25.907L51.4022 16.6977L47.3152 34.093L51.913 38.6977ZM47.6527 33.9969L51.7743 38.1246L55.67 25.9325L51.5066 17.5933L47.6527 33.9969Z" fill="white" fill-opacity="0.15"/>
<path fill-rule="evenodd" clip-rule="evenodd" d="M21.1235 38.4657L9.87279 35.1793L21.4206 49.1537L39.0047 51.5334L21.1235 38.4657ZM21.2609 38.186L9 34.6046L21.2609 49.4418L40.163 52L21.2609 38.186Z" fill="white" fill-opacity="0.15"/>
<path fill-rule="evenodd" clip-rule="evenodd" d="M9.37847 34.3954L20.834 37.7416L18.932 30.1222L13.1935 21.0229L9.37847 34.3954ZM9 34.6046L21.2609 38.186L19.2174 30L13.087 20.2791L9 34.6046Z" fill="white" fill-opacity="0.15"/>
<path d="M32.6972 27.0156H36.1656C36.1154 23.9651 33.6082 21.859 29.7971 21.859C26.0446 21.859 23.2949 23.9317 23.3117 27.0407C23.3033 29.5647 25.0835 31.0105 27.9752 31.7042L29.8389 32.1722C31.7026 32.6235 32.739 33.1584 32.7473 34.3118C32.739 35.5654 31.5522 36.4179 29.7135 36.4179C27.8331 36.4179 26.4792 35.5487 26.3622 33.8354H22.8604C22.9523 37.5378 25.6016 39.4517 29.7553 39.4517C33.9341 39.4517 36.3912 37.4542 36.3996 34.3201C36.3912 31.4702 34.2433 29.9575 31.2681 29.2889L29.7303 28.9211C28.2426 28.5785 26.9973 28.0269 27.0224 26.7983C27.0224 25.6951 28.0002 24.8844 29.7721 24.8844C31.5021 24.8844 32.5635 25.6701 32.6972 27.0156Z" fill="white"/>
<path d="M41.5507 27.3023H38.3182V39.2093H41.5507V27.3023Z" fill="white"/>
<path d="M40.3458 17.907H39.1627L37.6888 18.8401V19.9564L39.0522 19.1017H39.0871V23.8605H40.3458V17.907Z" fill="white"/>
<path d="M41.6707 22.814H44.5282V23.8605H45.7317V22.814H46.4701V21.8052H45.7317V17.907H44.1561L41.6707 21.8227V22.814ZM44.5515 21.8052H42.9381V21.7587L44.505 19.2791H44.5515V21.8052Z" fill="white"/>
<defs>
<linearGradient id="paint0_linear_3_297" x1="9" y1="30.1053" x2="56" y2="30.1053" gradientUnits="userSpaceOnUse">
<stop stop-color="#6366F1"/>
<stop offset="0.5" stop-color="#8B5CF6"/>
<stop offset="1" stop-color="#D946EF"/>
</linearGradient>
<linearGradient id="paint1_linear_3_297" x1="9" y1="30.1053" x2="56" y2="30.1053" gradientUnits="userSpaceOnUse">
<stop stop-color="#6366F1"/>
<stop offset="0.5" stop-color="#8B5CF6"/>
<stop offset="1" stop-color="#D946EF"/>
</linearGradient>
<linearGradient id="paint2_linear_3_297" x1="9" y1="30.1053" x2="56" y2="30.1053" gradientUnits="userSpaceOnUse">
<stop stop-color="#6366F1"/>
<stop offset="0.5" stop-color="#8B5CF6"/>
<stop offset="1" stop-color="#D946EF"/>
</linearGradient>
<linearGradient id="paint3_linear_3_297" x1="9" y1="30.1053" x2="56" y2="30.1053" gradientUnits="userSpaceOnUse">
<stop stop-color="#6366F1"/>
<stop offset="0.5" stop-color="#8B5CF6"/>
<stop offset="1" stop-color="#D946EF"/>
</linearGradient>
<linearGradient id="paint4_linear_3_297" x1="9" y1="30.1053" x2="56" y2="30.1053" gradientUnits="userSpaceOnUse">
<stop stop-color="#6366F1"/>
<stop offset="0.5" stop-color="#8B5CF6"/>
<stop offset="1" stop-color="#D946EF"/>
</linearGradient>
<linearGradient id="paint5_linear_3_297" x1="9" y1="30.1053" x2="56" y2="30.1053" gradientUnits="userSpaceOnUse">
<stop stop-color="#6366F1"/>
<stop offset="0.5" stop-color="#8B5CF6"/>
<stop offset="1" stop-color="#D946EF"/>
</linearGradient>
</defs>
</svg>
