<svg width="20" height="20" viewBox="0 0 20 20" fill="none" xmlns="http://www.w3.org/2000/svg">
<path d="M16.6666 6.66663H11.99L12.9258 3.86079C13.0941 3.35413 13.0091 2.79246 12.6966 2.35913C12.3841 1.92579 11.8775 1.66663 11.3433 1.66663H9.99996C9.75246 1.66663 9.51829 1.77663 9.35913 1.96663L5.44246 6.66663H3.33329C2.41413 6.66663 1.66663 7.41413 1.66663 8.33329V15.8333C1.66663 16.7525 2.41413 17.5 3.33329 17.5H5.83329H14.4225C15.1133 17.5 15.74 17.0658 15.9833 16.4183L18.2808 10.2925C18.3158 10.1991 18.3333 10.1 18.3333 9.99996V8.33329C18.3333 7.41413 17.5858 6.66663 16.6666 6.66663ZM3.33329 8.33329H4.99996V15.8333H3.33329V8.33329ZM16.6666 9.84913L14.4225 15.8333H6.66663V7.80163L10.39 3.33329H11.345L10.0433 7.23579C9.95746 7.48996 10.0008 7.76913 10.1575 7.98663C10.3141 8.20496 10.5658 8.33329 10.8333 8.33329H16.6666V9.84913Z" fill="#9397AD"/>
</svg>
